<?xml version="1.0" encoding="UTF-8" standalone="no"?>
<!-- Created with Inkscape (http://www.inkscape.org/) -->

<svg
   width="300"
   height="300"
   viewBox="0 0 79.374998 79.375"
   version="1.1"
   id="svg1"
   inkscape:version="1.3.2 (091e20e, 2023-11-25, custom)"
   sodipodi:docname="rajzjoo.svg"
   xmlns:inkscape="http://www.inkscape.org/namespaces/inkscape"
   xmlns:sodipodi="http://sodipodi.sourceforge.net/DTD/sodipodi-0.dtd"
   xmlns="http://www.w3.org/2000/svg"
   xmlns:svg="http://www.w3.org/2000/svg">
  <sodipodi:namedview
     id="namedview1"
     pagecolor="#ffffff"
     bordercolor="#000000"
     borderopacity="0.25"
     inkscape:showpageshadow="2"
     inkscape:pageopacity="0.0"
     inkscape:pagecheckerboard="0"
     inkscape:deskcolor="#d1d1d1"
     inkscape:document-units="mm"
     inkscape:zoom="1.76"
     inkscape:cx="59.659091"
     inkscape:cy="155.39773"
     inkscape:window-width="1920"
     inkscape:window-height="974"
     inkscape:window-x="-11"
     inkscape:window-y="-11"
     inkscape:window-maximized="1"
     inkscape:current-layer="layer1" />
  <defs
     id="defs1" />
  <g
     inkscape:label="Réteg 1"
     inkscape:groupmode="layer"
     id="layer1">
    <path
       id="path1"
       style="display:inline;fill:#1d3764;fill-opacity:1;stroke:#2b1b2f;stroke-width:0;paint-order:markers stroke fill"
       d="m 25.523341,1.0526579 c -0.451818,-0.068365 -1.012342,-0.10292272 -1.706054,-0.099298 -7.357354,0.038434 0.434442,4.28304722 -6.342988,7.14636662 -6.81633,2.8797525 -4.396111,-5.6704384 -9.6010743,-0.410808 -5.1752581,5.2296105 3.3358543,2.7215595 0.5681597,9.5385955 -2.7835802,6.856167 -7.1177798,-0.900856 -7.079125,6.498729 0.038434,7.357354 4.2830473,-0.434442 7.1463657,6.342988 2.8797539,6.816329 -5.6699264,4.396188 -0.4102969,9.601152 5.2296128,5.175257 2.7210508,-3.335936 9.5380878,-0.568239 6.856166,2.78358 -0.900858,7.11778 6.498726,7.079125 7.357354,-0.03844 -0.434442,-4.28305 6.342987,-7.146366 6.816333,-2.879752 4.39619,5.669928 9.601155,0.410299 5.175256,-5.229614 -3.335929,-2.721051 -0.568237,-9.538089 2.783579,-6.856166 7.117781,0.900856 7.079124,-6.498726 -0.03843,-7.357355 -4.283045,0.434442 -7.146366,-6.342989 -2.879751,-6.816331 5.669928,-4.396189 0.410299,-9.6011515 C 34.624493,2.288989 37.133053,10.800177 30.316013,8.0324835 24.102611,5.5098637 29.890919,1.713514 25.523341,1.0526579 Z M 25.06501,17.173894 a 6.4999999,6.4999998 6.3111615 0 1 5.454111,7.399263 6.4999999,6.4999998 6.3111615 0 1 -7.39934,5.454623 6.4999999,6.4999998 6.3111615 0 1 -5.454033,-7.399773 6.4999999,6.4999998 6.3111615 0 1 7.399262,-5.454113 z"
       inkscape:transform-center-x="0.21313672"
       inkscape:transform-center-y="-0.35522787" />
    <path
       id="path4"
       style="display:inline;fill:#808080;fill-opacity:1;stroke:#2b1b2f;stroke-width:0;paint-order:markers stroke fill"
       inkscape:transform-center-x="-0.17011386"
       inkscape:transform-center-y="0.29799112"
       d="m 58.374933,28.594607 c -3.752072,-0.06122 0.567462,5.522937 -6.137609,5.954675 -7.662938,0.493414 -1.902806,-7.534698 -8.935373,-4.442106 -7.032566,3.092593 2.756718,4.282725 -2.797244,9.601481 -5.553964,5.318757 -6.28593,-4.544889 -9.691399,2.358512 -3.405469,6.903402 4.856317,1.503222 4.010092,9.158614 -0.846227,7.655394 -7.727904,0.57129 -5.912819,8.055323 1.815086,7.484029 4.683586,-1.979766 8.941056,4.430219 4.257473,6.409989 -5.553822,5.420052 0.63252,9.982854 6.186341,4.562801 2.31925,-4.535672 9.688297,-2.370397 7.36905,2.165277 -0.781189,7.732766 6.881751,7.23935 7.66294,-0.493416 -1.130602,-4.969964 5.901966,-8.062557 7.032565,-3.09259 4.357061,6.427216 9.911023,1.10846 5.553964,-5.318758 -4.050391,-3.078416 -0.644923,-9.981821 3.40547,-6.903401 7.456111,2.114648 8.302336,-5.540746 0.846224,-7.655395 -5.075448,0.252949 -6.890534,-7.231084 -1.815086,-7.484032 7.066599,-3.187358 2.809129,-9.597344 -4.257468,-6.409987 -3.725716,3.466742 -9.912057,-1.096058 -6.186338,-4.562802 3.370845,-6.999023 -3.998205,-9.1643 -0.921131,-0.270659 -1.621997,-0.394329 -2.158007,-0.403075 z m -4.742346,17.527094 a 7,7.0000001 0 0 1 6.999574,7.000091 7,7.0000001 0 0 1 -6.999574,6.999571 7,7.0000001 0 0 1 -7.000089,-6.999571 7,7.0000001 0 0 1 7.000089,-7.000091 z" />
  </g>
</svg>
